<?xml version="1.0" encoding="UTF-8"?>
<svg id="Calque_1" data-name="Calque 1" xmlns="http://www.w3.org/2000/svg" viewBox="0 0 32 32">
  <rect x="0" y="10.67" width="5.33" height="5.33" rx="2.67" ry="2.67" fill="#1f1f23" stroke-width="0"/>
  <rect x="5.33" y="0" width="5.33" height="5.33" rx="2.67" ry="2.67" fill="#1f1f23" stroke-width="0"/>
  <rect x="5.33" y="5.33" width="5.33" height="5.33" rx="2.67" ry="2.67" fill="#1f1f23" stroke-width="0"/>
  <rect x="5.33" y="10.67" width="5.33" height="5.33" rx="2.67" ry="2.67" fill="#1f1f23" stroke-width="0"/>
  <rect x="10.67" y="10.67" width="5.33" height="5.33" rx="2.67" ry="2.67" fill="#1f1f23" stroke-width="0"/>
  <rect x="0" y="16" width="5.33" height="5.33" rx="2.67" ry="2.67" fill="#1f1f23" stroke-width="0"/>
  <rect x="0" y="21.33" width="5.33" height="5.33" rx="2.67" ry="2.67" fill="#1f1f23" stroke-width="0"/>
  <rect x="0" y="26.67" width="5.33" height="5.33" rx="2.67" ry="2.67" fill="#1f1f23" stroke-width="0"/>
  <rect x="10.67" y="16" width="5.33" height="5.33" rx="2.67" ry="2.67" fill="#1f1f23" stroke-width="0"/>
  <rect x="10.67" y="21.33" width="5.33" height="5.33" rx="2.67" ry="2.67" fill="#1f1f23" stroke-width="0"/>
  <rect x="26.67" y="16" width="5.33" height="5.33" rx="2.67" ry="2.67" fill="#1f1f23" stroke-width="0"/>
  <rect x="26.67" y="21.33" width="5.33" height="5.33" rx="2.67" ry="2.67" fill="#1f1f23" stroke-width="0"/>
  <rect x="26.67" y="26.67" width="5.33" height="5.33" rx="2.67" ry="2.67" fill="#1f1f23" stroke-width="0"/>
  <rect x="16" y="5.33" width="5.33" height="5.33" rx="2.67" ry="2.67" fill="#1f1f23" stroke-width="0"/>
  <rect x="5.33" y="26.67" width="5.33" height="5.33" rx="2.67" ry="2.67" fill="#1f1f23" stroke-width="0"/>
  <rect x="16" y="16" width="5.33" height="5.33" rx="2.67" ry="2.67" fill="#1f1f23" stroke-width="0"/>
  <rect x="21.33" y="0" width="5.33" height="5.33" rx="2.67" ry="2.67" fill="#1f1f23" stroke-width="0"/>
  <rect x="26.67" y="5.33" width="5.33" height="5.33" rx="2.67" ry="2.67" fill="#1f1f23" stroke-width="0"/>
</svg>